<?xml version="1.0" encoding="UTF-8" standalone="no"?>
<!DOCTYPE svg PUBLIC "-//W3C//DTD SVG 1.1//EN"
 "http://www.w3.org/Graphics/SVG/1.1/DTD/svg11.dtd">
<!-- Generated by graphviz version 2.43.0 (0)
 -->
<!-- Title: G Pages: 1 -->
<svg width="597pt" height="376pt"
 viewBox="0.00 0.00 596.83 375.97" xmlns="http://www.w3.org/2000/svg" xmlns:xlink="http://www.w3.org/1999/xlink">
<g id="graph0" class="graph" transform="scale(1 1) rotate(0) translate(4 371.97)">
<title>G</title><style>.edge>path:hover{stroke-width:8}</style>
<polygon fill="white" stroke="transparent" points="-4,4 -4,-371.97 592.83,-371.97 592.83,4 -4,4"/>
<!-- app_main -->
<g id="node1" class="node">
<title>app_main</title><style>.edge>path:hover{stroke-width:8}</style>
<ellipse fill="#a44646" stroke="black" cx="189.43" cy="-205.97" rx="36.49" ry="18"/>
<text text-anchor="middle" x="189.43" y="-203.47" font-family="Helvetica,sans-Serif" font-size="10.00" fill="#ffffff">app.main</text>
</g>
<!-- app_models_task -->
<g id="node2" class="node">
<title>app_models_task</title><style>.edge>path:hover{stroke-width:8}</style>
<ellipse fill="#964040" stroke="black" cx="363.43" cy="-28.99" rx="39.7" ry="28.98"/>
<text text-anchor="middle" x="363.43" y="-37.49" font-family="Helvetica,sans-Serif" font-size="10.00" fill="#ffffff">app.</text>
<text text-anchor="middle" x="363.43" y="-26.49" font-family="Helvetica,sans-Serif" font-size="10.00" fill="#ffffff">models.</text>
<text text-anchor="middle" x="363.43" y="-15.49" font-family="Helvetica,sans-Serif" font-size="10.00" fill="#ffffff">task</text>
</g>
<!-- app_models_user -->
<g id="node3" class="node">
<title>app_models_user</title><style>.edge>path:hover{stroke-width:8}</style>
<ellipse fill="#b83d3d" stroke="black" cx="363.43" cy="-122.97" rx="39.7" ry="28.98"/>
<text text-anchor="middle" x="363.43" y="-131.47" font-family="Helvetica,sans-Serif" font-size="10.00" fill="#ffffff">app.</text>
<text text-anchor="middle" x="363.43" y="-120.47" font-family="Helvetica,sans-Serif" font-size="10.00" fill="#ffffff">models.</text>
<text text-anchor="middle" x="363.43" y="-109.47" font-family="Helvetica,sans-Serif" font-size="10.00" fill="#ffffff">user</text>
</g>
<!-- app_models_user&#45;&gt;app_models_task -->
<g id="edge1" class="edge">
<title>app_models_user&#45;&gt;app_models_task</title><style>.edge>path:hover{stroke-width:8}</style>
<path fill="none" stroke="black" d="M363.43,-93.88C363.43,-85.84 363.43,-76.94 363.43,-68.39"/>
<polygon fill="#b83d3d" stroke="black" points="366.93,-68.23 363.43,-58.23 359.93,-68.23 366.93,-68.23"/>
</g>
<!-- app_workers_celery_app -->
<g id="node4" class="node">
<title>app_workers_celery_app</title><style>.edge>path:hover{stroke-width:8}</style>
<ellipse fill="#c04040" stroke="black" cx="529.43" cy="-122.97" rx="49.49" ry="28.98"/>
<text text-anchor="middle" x="529.43" y="-131.47" font-family="Helvetica,sans-Serif" font-size="10.00" fill="#ffffff">app.</text>
<text text-anchor="middle" x="529.43" y="-120.47" font-family="Helvetica,sans-Serif" font-size="10.00" fill="#ffffff">workers.</text>
<text text-anchor="middle" x="529.43" y="-109.47" font-family="Helvetica,sans-Serif" font-size="10.00" fill="#ffffff">celery_app</text>
</g>
<!-- app_workers_logging_tasks -->
<g id="node5" class="node">
<title>app_workers_logging_tasks</title><style>.edge>path:hover{stroke-width:8}</style>
<ellipse fill="#a44646" stroke="black" cx="529.43" cy="-28.99" rx="59.29" ry="28.98"/>
<text text-anchor="middle" x="529.43" y="-37.49" font-family="Helvetica,sans-Serif" font-size="10.00" fill="#ffffff">app.</text>
<text text-anchor="middle" x="529.43" y="-26.49" font-family="Helvetica,sans-Serif" font-size="10.00" fill="#ffffff">workers.</text>
<text text-anchor="middle" x="529.43" y="-15.49" font-family="Helvetica,sans-Serif" font-size="10.00" fill="#ffffff">logging_tasks</text>
</g>
<!-- app_workers_celery_app&#45;&gt;app_workers_logging_tasks -->
<g id="edge2" class="edge">
<title>app_workers_celery_app&#45;&gt;app_workers_logging_tasks</title><style>.edge>path:hover{stroke-width:8}</style>
<path fill="none" stroke="black" d="M529.43,-93.88C529.43,-85.84 529.43,-76.94 529.43,-68.39"/>
<polygon fill="#c04040" stroke="black" points="532.93,-68.23 529.43,-58.23 525.93,-68.23 532.93,-68.23"/>
</g>
<!-- celery -->
<g id="node6" class="node">
<title>celery</title><style>.edge>path:hover{stroke-width:8}</style>
<ellipse fill="#a6c040" stroke="black" cx="529.43" cy="-349.97" rx="27.84" ry="18"/>
<text text-anchor="middle" x="529.43" y="-347.47" font-family="Helvetica,sans-Serif" font-size="10.00" fill="#000000">celery</text>
</g>
<!-- celery&#45;&gt;app_workers_celery_app -->
<g id="edge3" class="edge">
<title>celery&#45;&gt;app_workers_celery_app</title><style>.edge>path:hover{stroke-width:8}</style>
<path fill="none" stroke="black" d="M529.43,-331.68C529.43,-295.73 529.43,-212.13 529.43,-162.65"/>
<polygon fill="#a6c040" stroke="black" points="532.93,-162.34 529.43,-152.34 525.93,-162.34 532.93,-162.34"/>
</g>
<!-- fastapi -->
<g id="node7" class="node">
<title>fastapi</title><style>.edge>path:hover{stroke-width:8}</style>
<ellipse fill="#53b67b" stroke="black" cx="29.43" cy="-349.97" rx="29.37" ry="18"/>
<text text-anchor="middle" x="29.43" y="-347.47" font-family="Helvetica,sans-Serif" font-size="10.00" fill="#000000">fastapi</text>
</g>
<!-- fastapi&#45;&gt;app_main -->
<g id="edge4" class="edge">
<title>fastapi&#45;&gt;app_main</title><style>.edge>path:hover{stroke-width:8}</style>
<path fill="none" stroke="black" d="M52.73,-338.5C57.58,-336.33 62.67,-334.06 67.43,-331.97 121.53,-308.12 165.38,-332.97 189.43,-278.97"/>
<path fill="none" stroke="black" d="M189.43,-276.97C195.36,-263.65 195.74,-247.45 194.46,-233.98"/>
<polygon fill="#53b67b" stroke="black" points="197.91,-233.35 193.15,-223.88 190.96,-234.25 197.91,-233.35"/>
</g>
<!-- prometheus_fastapi_instrumentator -->
<g id="node8" class="node">
<title>prometheus_fastapi_instrumentator</title><style>.edge>path:hover{stroke-width:8}</style>
<ellipse fill="#537bb6" stroke="black" cx="189.43" cy="-349.97" rx="113.05" ry="18"/>
<text text-anchor="middle" x="189.43" y="-347.47" font-family="Helvetica,sans-Serif" font-size="10.00" fill="#ffffff">prometheus_fastapi_instrumentator</text>
</g>
<!-- prometheus_fastapi_instrumentator&#45;&gt;app_main -->
<g id="edge5" class="edge">
<title>prometheus_fastapi_instrumentator&#45;&gt;app_main</title><style>.edge>path:hover{stroke-width:8}</style>
<path fill="none" stroke="black" d="M185.67,-331.76C183.31,-317.07 181.97,-295.73 189.43,-278.97"/>
</g>
<!-- sqlalchemy -->
<g id="node9" class="node">
<title>sqlalchemy</title><style>.edge>path:hover{stroke-width:8}</style>
<ellipse fill="#b526d9" stroke="black" cx="363.43" cy="-349.97" rx="42.94" ry="18"/>
<text text-anchor="middle" x="363.43" y="-347.47" font-family="Helvetica,sans-Serif" font-size="10.00" fill="#ffffff">sqlalchemy</text>
</g>
<!-- sqlalchemy&#45;&gt;app_models_task -->
<g id="edge6" class="edge">
<title>sqlalchemy&#45;&gt;app_models_task</title><style>.edge>path:hover{stroke-width:8}</style>
<path fill="none" stroke="black" d="M365.56,-331.71C368.4,-304.77 372.15,-251.23 363.43,-206.97"/>
<path fill="none" stroke="black" d="M363.43,-204.97C355.93,-173.77 326.13,-181.84 314.43,-151.97 305.04,-127.97 306.16,-118.39 314.43,-93.98 318.5,-81.97 325.83,-70.45 333.6,-60.57"/>
<polygon fill="#b526d9" stroke="black" points="336.46,-62.6 340.17,-52.68 331.08,-58.12 336.46,-62.6"/>
</g>
<!-- sqlalchemy&#45;&gt;app_models_user -->
<g id="edge7" class="edge">
<title>sqlalchemy&#45;&gt;app_models_user</title><style>.edge>path:hover{stroke-width:8}</style>
<path fill="none" stroke="black" d="M363.43,-204.97C360.71,-191.11 360.12,-175.67 360.41,-162.01"/>
<polygon fill="#b526d9" stroke="black" points="363.91,-162.09 360.79,-151.97 356.91,-161.83 363.91,-162.09"/>
</g>
<!-- sqlalchemy_orm -->
<g id="node10" class="node">
<title>sqlalchemy_orm</title><style>.edge>path:hover{stroke-width:8}</style>
<ellipse fill="#9f3db8" stroke="black" cx="446.43" cy="-277.97" rx="55.17" ry="18"/>
<text text-anchor="middle" x="446.43" y="-275.47" font-family="Helvetica,sans-Serif" font-size="10.00" fill="#ffffff">sqlalchemy.orm</text>
</g>
<!-- sqlalchemy_orm&#45;&gt;app_models_task -->
<g id="edge8" class="edge">
<title>sqlalchemy_orm&#45;&gt;app_models_task</title><style>.edge>path:hover{stroke-width:8}</style>
<path fill="none" stroke="black" d="M445.89,-259.79C444.27,-226.42 437.85,-151.11 412.43,-93.98 407.28,-82.4 399.63,-70.99 391.91,-61.1"/>
<polygon fill="#9f3db8" stroke="black" points="394.48,-58.71 385.45,-53.17 389.05,-63.13 394.48,-58.71"/>
</g>
</g>
</svg>
